<svg width="99" height="96" viewBox="0 0 99 96" fill="none" xmlns="http://www.w3.org/2000/svg">
<path d="M74.1279 45.9071C65.7558 40.1512 55.1163 42.5931 49.5349 51.1396C44.8256 58.2908 37.8488 59.1629 35.0581 59.1629C26.1628 59.1629 20.0581 52.8838 18.1395 46.4303V46.2559V46.0815C17.4419 43.2908 17.2674 42.0699 17.2674 39.2792C17.2674 23.7559 33.1395 6.48846 56.1628 6.48846C79.7093 6.48846 93.1395 24.4536 96.6279 34.3954C96.6279 34.221 96.4535 34.0466 96.4535 33.8722C89.6512 13.9885 71.1628 0.0349731 49.5349 0.0349731C22.1512 0.0349731 0 22.1861 0 49.5699C0 73.9885 17.6163 94.9187 42.0349 94.9187C61.5698 94.9187 74.6512 83.9303 80.5814 68.9303C83.8954 60.5582 81.6279 50.9652 74.1279 45.9071Z" fill="#003863"/>
<path d="M96.8021 34.9185C93.837 25.1511 80.4067 6.13947 55.9881 6.13947C32.9649 6.13947 17.0928 23.4069 17.0928 38.9302C17.0928 41.8953 17.2672 43.1162 17.9649 45.7325C17.616 44.5116 17.4416 43.2906 17.4416 42.2441C17.4416 26.0232 33.6625 14.8604 50.2323 14.8604C72.9067 15.0348 91.2207 33.1743 91.2207 55.6743C91.2207 73.2906 81.1044 88.6395 66.2788 95.965C85.2904 88.9883 98.8951 70.8488 98.8951 49.3953C98.8951 44.5116 98.1974 39.9767 96.8021 34.9185Z" fill="#E4032E"/>
</svg>
