<svg width="182" height="54" viewBox="0 0 182 54" fill="none" xmlns="http://www.w3.org/2000/svg">
<path d="M82.4569 27.8032H70.6626V17.1089H73.407V20.0493H79.7397V17.1089H82.4569V27.8032ZM79.7397 22.3689H73.407V25.5108H79.7397V22.3689ZM87.3467 34.2885C87.3467 35.0562 87.1942 35.7587 86.8838 36.3958C86.5735 37.0328 86.1705 37.6046 85.675 38.1001C85.1468 38.6011 84.5261 38.9931 83.8291 39.2872C83.1321 39.5757 82.3915 39.7228 81.6129 39.7228C80.8342 39.7228 80.0937 39.5757 79.4076 39.2872C78.716 38.9931 78.1062 38.6011 77.5726 38.1001C77.0553 37.5991 76.6469 37.0328 76.3419 36.3958C76.0316 35.7532 75.8791 35.0562 75.8791 34.2885C75.8791 33.5207 76.0316 32.84 76.3419 32.1921C76.6469 31.5441 77.0607 30.9723 77.5726 30.4714C78.1062 29.9704 78.716 29.5784 79.4076 29.2898C80.0937 28.9957 80.8342 28.8542 81.6129 28.8542C82.3915 28.8542 83.1321 29.0012 83.8291 29.2898C84.5261 29.5784 85.1414 29.9759 85.675 30.4714C86.176 30.9723 86.5789 31.5441 86.8838 32.1921C87.1888 32.84 87.3467 33.537 87.3467 34.2885ZM84.6513 34.2667C84.6513 33.4336 84.3518 32.7257 83.7529 32.1376C83.1539 31.5495 82.4406 31.25 81.6074 31.25C80.7743 31.25 80.0665 31.5441 79.4784 32.1376C78.8848 32.7257 78.5908 33.439 78.5908 34.2667C78.5908 35.0943 78.8848 35.8295 79.4784 36.4121C80.0665 36.9947 80.7798 37.2833 81.6074 37.2833C82.4351 37.2833 83.1539 36.9893 83.7529 36.4121C84.3518 35.8295 84.6513 35.1161 84.6513 34.2667ZM88.5882 28.4567H85.8438V16.7604H88.5882V21.122H91.7791V23.8664H88.5882V28.4567Z" fill="#575756"/>
<path d="M93.1245 32.2683V29.8234H108.012V32.2683H101.777V38.2798H99.0598V32.2683H93.1245ZM106.313 22.7937C106.313 23.556 106.155 24.2802 105.85 24.9608C105.545 25.6415 105.115 26.2296 104.565 26.7305C104.015 27.2478 103.383 27.6562 102.67 27.9503C101.957 28.2497 101.189 28.3968 100.378 28.3968C99.5662 28.3968 98.7984 28.2443 98.0851 27.9503C97.3718 27.6508 96.7401 27.2424 96.1902 26.7305C95.6402 26.2296 95.21 25.6415 94.8942 24.9608C94.5784 24.2802 94.4205 23.556 94.4205 22.7937C94.4205 22.0313 94.5784 21.3071 94.8942 20.6265C95.21 19.9458 95.6402 19.3468 96.1902 18.8296C96.7401 18.3177 97.3718 17.9093 98.0851 17.6098C98.7984 17.3103 99.5607 17.1633 100.378 17.1633C101.194 17.1633 101.957 17.3158 102.67 17.6098C103.383 17.9093 104.015 18.3177 104.565 18.8296C105.115 19.3468 105.54 19.9458 105.85 20.6265C106.155 21.3071 106.313 22.0313 106.313 22.7937ZM103.672 22.7937C103.672 21.8952 103.345 21.1329 102.697 20.5012C102.049 19.8696 101.276 19.5538 100.378 19.5538C99.4791 19.5538 98.7113 19.8696 98.0687 20.5012C97.4262 21.1329 97.1104 21.8952 97.1104 22.7937C97.1104 23.6921 97.4262 24.4381 98.0687 25.0752C98.7113 25.7123 99.4791 26.0335 100.378 26.0335C101.276 26.0335 102.049 25.7123 102.697 25.0752C103.345 24.4327 103.672 23.6758 103.672 22.7937ZM109.683 16.7604H112.428V39.004H109.683V16.7604Z" fill="#575756"/>
<path d="M122.43 16.9074L129.76 34.8874L127.315 35.9601L122.43 23.7683L117.617 36.1344L115.101 35.0399L122.43 16.9128V16.9074ZM134.148 38.9986H131.404V16.7604H134.148V25.3366H137.339V28.1027H134.148V38.9986Z" fill="#575756"/>
<path d="M150.647 22.3199C150.647 23.055 150.494 23.7357 150.2 24.3782C149.901 25.0153 149.503 25.5816 149.002 26.0608C148.485 26.5454 147.886 26.9266 147.205 27.2097C146.525 27.4929 145.801 27.6344 145.038 27.6344C144.276 27.6344 143.552 27.4929 142.871 27.2097C142.19 26.9266 141.591 26.5454 141.074 26.0608C140.573 25.5816 140.176 25.0153 139.876 24.3782C139.577 23.7357 139.43 23.0496 139.43 22.3199C139.43 21.5903 139.577 20.8987 139.876 20.2507C140.176 19.6028 140.573 19.0474 141.074 18.5791C141.591 18.0781 142.19 17.6915 142.871 17.4084C143.552 17.1252 144.276 16.9836 145.038 16.9836C145.801 16.9836 146.525 17.1252 147.205 17.4084C147.886 17.6915 148.485 18.0836 149.002 18.5791C149.503 19.0474 149.901 19.6028 150.2 20.2507C150.5 20.8987 150.647 21.5903 150.647 22.3199ZM141.047 28.8759H143.764V31.0703H155.809V28.8759H158.526V38.552H141.047V28.8759ZM148.006 22.3199C148.006 21.5086 147.712 20.8062 147.135 20.2235C146.552 19.6409 145.855 19.3523 145.038 19.3523C144.221 19.3523 143.53 19.6463 142.958 20.2235C142.386 20.8062 142.098 21.5031 142.098 22.3199C142.098 23.1367 142.386 23.8282 142.958 24.4054C143.53 24.9826 144.221 25.2658 145.038 25.2658C145.855 25.2658 146.552 24.9772 147.135 24.4054C147.717 23.8337 148.006 23.1367 148.006 22.3199ZM155.809 33.243H143.764V36.3086H155.809V33.243ZM155.76 16.7604H158.526V27.3349H155.76V23.1476H151.997V20.7299H155.76V16.7658V16.7604Z" fill="#575756"/>
<path d="M161.913 20.9205V18.6008H167.124V16.4827H170.065V18.6008H175.025V20.9205H169.613L175.221 26.6053L173.424 28.2987L168.589 23.2619L163.803 28.6962L161.957 26.9756L167.592 20.9151H161.908L161.913 20.9205ZM179.664 34.2612C179.664 35.0072 179.507 35.7097 179.202 36.3685C178.897 37.0274 178.483 37.5991 177.966 38.1001C177.448 38.601 176.838 38.9931 176.131 39.2871C175.423 39.5757 174.671 39.7228 173.876 39.7228C173.081 39.7228 172.346 39.5757 171.633 39.2871C170.92 38.9931 170.299 38.601 169.787 38.1001C169.27 37.5991 168.861 37.0274 168.551 36.3685C168.246 35.7097 168.088 35.0072 168.088 34.2612C168.088 33.5152 168.24 32.8128 168.551 32.1539C168.856 31.4951 169.27 30.9179 169.787 30.4169C170.299 29.916 170.914 29.5239 171.633 29.2353C172.346 28.9413 173.092 28.7997 173.876 28.7997C174.66 28.7997 175.428 28.9467 176.131 29.2353C176.833 29.5239 177.448 29.9214 177.966 30.4169C178.477 30.9179 178.891 31.4951 179.202 32.1539C179.507 32.8074 179.664 33.5098 179.664 34.2612ZM176.947 34.234C176.947 33.4009 176.642 32.6876 176.038 32.0886C175.434 31.4896 174.704 31.1901 173.854 31.1901C173.005 31.1901 172.308 31.4896 171.709 32.0886C171.11 32.6876 170.811 33.4009 170.811 34.234C170.811 35.0671 171.11 35.8022 171.709 36.3903C172.308 36.9784 173.021 37.2724 173.854 37.2724C174.688 37.2724 175.428 36.9784 176.038 36.3903C176.642 35.8022 176.947 35.078 176.947 34.234ZM178.793 28.5982V24.3564H174.905V21.9878H178.793V16.7495H181.559V28.5928H178.793V28.5982Z" fill="#575756"/>
<path d="M42.3696 25.7721C37.6813 22.5867 31.6698 23.8826 28.5171 28.6798C25.8816 32.6875 21.9066 33.183 20.3656 33.183C15.3506 33.183 11.9147 29.6545 10.8964 26.0008C10.8855 25.9627 10.8801 25.9355 10.8692 25.8973C10.8583 25.8538 10.8474 25.8157 10.8365 25.7721C10.439 24.2475 10.341 23.5178 10.341 21.9006C10.341 13.1665 19.2983 3.44136 32.2089 3.44136C45.1195 3.44136 52.9878 13.5041 54.9372 19.0963C54.9045 18.9983 54.8718 18.9003 54.8391 18.7968C51.0874 7.86286 40.7143 0 28.5062 0C13.1398 0 0.675781 12.4586 0.675781 27.8304C0.675781 41.5686 10.586 53.3302 24.3297 53.3302C35.2909 53.3302 42.6582 47.1826 46.0397 38.7099C47.8911 34.076 46.5788 28.6308 42.3696 25.7721Z" fill="#003863"/>
<path d="M55.1111 19.6408C53.4885 14.1847 45.8652 3.44678 32.2141 3.44678C19.3035 3.44678 10.3462 13.1719 10.3462 21.906C10.3462 23.5232 10.4442 24.2529 10.8417 25.7775C10.6729 25.1132 10.5858 24.4434 10.5858 23.79C10.5858 14.6965 19.6956 8.39101 29.0559 8.39101C41.7323 8.39101 52.0019 18.6661 52.0019 31.3371C52.0019 41.2745 46.2845 49.8671 37.9806 54C48.6858 50.1284 56.3363 39.8751 56.3363 27.8304C56.3363 24.9825 55.9551 22.4668 55.1111 19.6408Z" fill="#E4032E"/>
</svg>
